<?xml version="1.0" standalone="no"?> <!DOCTYPE svg PUBLIC "-//W3C//DTD SVG 1.0//EN" "http://www.w3.org/TR/2001/REC-SVG-20010904/DTD/svg10.dtd" > <svg xmlns="http://www.w3.org/2000/svg" width="100%" height="100%">
<defs >
<font id="blisspro-bold" horiz-adv-x="424" ><font-face
    font-family="Bliss Pro"
    units-per-em="1000"
    panose-1="2 0 8 3 5 0 0 2 0 4"
    ascent="953"
    descent="-241"
    alphabetic="0" />
<missing-glyph horiz-adv-x="550" d="M50 0V659H500V0H50ZM101 48H449V611H101V48ZM231 222Q202 251 202 282Q202 307 222 330T267 369T311 406T332 454Q332 475 317 488T277 501Q236 501 192 462L165 497Q214 548 282 548Q330 548 359 523T388 457Q388 426 368
398T322 353T277 318T256 285Q256 269 273 250L231 222ZM271 107T255 107T228 118T217 146T228 174T255 186T281 175T292 146T282 118Z" />
<glyph unicode=" " glyph-name="space" horiz-adv-x="216" />
<glyph unicode="!" glyph-name="exclam" horiz-adv-x="269" d="M99 194Q83 278 79 351T75 612V659H194V611Q194 423 190 350T169 194H99ZM162 -9T134 -9T87 11T68 60T87 108T134 128T181 109T201 60T182 11Z" />
<glyph unicode="&quot;" glyph-name="quotedbl" horiz-adv-x="395" d="M65 474L52 708H164L153 474H65ZM245 474L233 708H344L334 474H245Z" />
<glyph unicode="#" glyph-name="numbersign" horiz-adv-x="715" d="M117 0L153 166H43V259H173L203 400H93V493H224L260 659H372L336 493H448L484 659H597L561 493H671V400H541L510 259H621V166H490L455 0H342L378 166H265L230 0H117ZM285 259H398L428 400H316L285 259Z" />
<glyph unicode="$" glyph-name="dollar" horiz-adv-x="545" d="M211 -86V17Q128 26 61 70L108 159Q180 112 246 112Q347 112 347 182Q347 214 320 239T253 284T174 327T107 389T79 481Q79 542 119 589T233 645V743H320V647Q388 640 436 614V514Q358 554 287 554Q248
554 225 538T202 490T229 435T296 391T375 349T441 287T469 194Q469 123 424 77T298 18V-86H211Z" />
<glyph unicode="%" glyph-name="percent" horiz-adv-x="889" d="M285 312T214 312T99 357T54 489Q54 574 98 619T214 665T329 620T374 489Q374 403 330 358ZM182 384T214 384T262 412T279 489T263 565T214 593T165 565T148 489T165 413ZM746 -10T675 -10T560 35T515
167Q515 252 559 297T675 343T790 298T835 167Q835 81 791 36ZM643 62T675 62T723 90T740 167T724 243T675 271T626 243T609 167T626 91ZM187 0L603 659H700L285 0H187Z" />
<glyph unicode="&amp;" glyph-name="ampersand" horiz-adv-x="763" d="M497 66Q400 -10 274 -10Q176 -10 115 44T54 182Q54 304 191 368Q164 399 152 415T128 458T116 516Q116 579 168 622T309 665T449 623T501 515Q501 414 367 345Q427 279 505 204Q564 267 588
346L689 321Q652 209 582 137Q638 89 687 89Q700 89 714 93L736 5Q708 -6 668 -6Q585 -6 497 66ZM292 86Q359 86 417 132Q334 207 255 297Q177 256 177 190Q177 145 209 116T292 86ZM299 416Q380 459 380 516Q380 542 362 560T308 579Q274 579 257 562T239 519Q239
476 299 416Z" />
<glyph unicode="&apos;" glyph-name="quotesingle" horiz-adv-x="215" d="M64 474L52 708H163L153 474H64Z" />
<glyph unicode="(" glyph-name="parenleft" horiz-adv-x="348" d="M243 -236Q146 -131 110 -10T73 268T109 546T243 775L323 715Q255 628 227 530T198 268T226 6T322 -176L243 -236Z" />
<glyph unicode=")" glyph-name="parenright" horiz-adv-x="348" d="M26 -176Q94 -92 122 6T150 268T122 530T25 715L105 775Q202 668 238 547T275 268T239 -10T105 -236L26 -176Z" />
<glyph unicode="*" glyph-name="asterisk" horiz-adv-x="488" d="M201 330Q199 363 211 421T224 491Q214 484 191 462T144 421T97 390L54 464Q82 482 140 501T205 524Q202 525 143 545T55 584L98 658Q128 643 174 602T224 558Q223 565 212 624T202 718H287Q289
685 277 626T264 558Q265 559 313 600T392 658L434 583Q406 565 348 546T283 524Q290 521 348 502T434 464L391 389Q361 404 315 445T263 490Q263 487 275 426T286 330H201Z" />
<glyph unicode="+" glyph-name="plus" horiz-adv-x="550" d="M219 0V201H40V300H219V496H330V300H511V201H330V0H219Z" />
<glyph unicode="," glyph-name="comma" horiz-adv-x="263" d="M34 -122Q80 -44 80 33Q80 64 74 99L184 118Q191 89 191 55Q191 -58 103 -155L34 -122Z" />
<glyph unicode="-" glyph-name="hyphen" horiz-adv-x="366" d="M52 198V298H315V198H52Z" />
<glyph unicode="." glyph-name="period" horiz-adv-x="263" d="M131 -9Q104 -9 85 11T65 60T84 108T131 128Q159 128 178 109T198 60T179 11T131 -9Z" />
<glyph unicode="/" glyph-name="slash" horiz-adv-x="397" d="M13 -35L265 696H384L132 -35H13Z" />
<glyph unicode="0" glyph-name="zero" horiz-adv-x="572" d="M398 -10T286 -10T111 77T48 328Q48 491 111 578T286 665T461 578T524 328Q524 164 461 77ZM227 91T286 91T371 150T397 328T371 505T286 564T201 506T175 328T201 150Z" />
<glyph unicode="1" glyph-name="one" horiz-adv-x="445" d="M223 0V540L70 471L30 564L250 664H341V0H223Z" />
<glyph unicode="2" glyph-name="two" horiz-adv-x="537" d="M28 0Q34 78 61 141T124 241T201 311T275 367T331 419T354 480Q354 523 325 543T252 564Q176 564 82 519L50 612Q160 665 270 665Q373 665 427 618T481 492Q481 440 455 397T388 321T307 259T230 188T184
102H487V0H28Z" />
<glyph unicode="3" glyph-name="three" horiz-adv-x="556" d="M33 27L67 122Q136 91 214 91Q363 91 363 193Q363 258 294 276Q266 284 213 284H126V380H196Q343 380 343 476Q343 517 318 540T242 564Q168 564 83 519L51 612Q153 665 257 665T415 614T470 488Q470
388 369 345V343Q426 332 458 293T490 195Q490 104 422 47T222 -10Q116 -10 33 27Z" />
<glyph unicode="4" glyph-name="four" horiz-adv-x="588" d="M39 161V241L365 664H451V259H549V161H451V0H333V161H39ZM172 257Q178 257 210 258T255 259H333V353Q333 368 339 482L172 257Z" />
<glyph unicode="5" glyph-name="five" horiz-adv-x="529" d="M34 26L67 120Q130 91 199 91Q265 91 306 120T347 205Q347 274 286 297Q248 312 166 312H84V659H479L449 557H201V407H227Q301 407 353 387Q413 363 443 317T474 212Q474 113 407 52T203 -10Q104 -10 34 26Z" />
<glyph unicode="6" glyph-name="six" horiz-adv-x="565" d="M298 -10Q189 -10 119 69T48 302Q48 459 129 562T346 665Q427 665 493 634L462 541Q409 568 352 568Q282 568 233 520T172 374Q243 422 327 422Q413 422 470 367T527 218Q527 114 463 52T298 -10ZM300
87Q348 87 374 117T400 201Q400 260 372 292T295 324Q265 324 231 311T175 279Q177 187 212 137T300 87Z" />
<glyph unicode="7" glyph-name="seven" horiz-adv-x="499" d="M77 0Q145 332 320 557H46L16 659H484V617Q274 373 203 0H77Z" />
<glyph unicode="8" glyph-name="eight" horiz-adv-x="574" d="M283 -10Q172 -10 110 40T48 173Q48 231 79 274T163 339V341Q67 395 67 486Q67 564 128 614T291 665Q391 665 447 615T504 495Q504 397 404 345V343Q526 296 526 184Q526 98 463 44T283 -10ZM290 83Q337
83 368 107T400 174Q400 201 388 221T351 256T307 276T256 293Q223 279 199 251T175 186Q175 137 208 110T290 83ZM309 386Q378 422 378 484Q378 522 353 547T284 572Q244 572 219 549T193 491Q193 448 224 425T309 386Z" />
<glyph unicode="9" glyph-name="nine" horiz-adv-x="559" d="M213 -10Q126 -10 56 23L86 119Q148 87 211 87Q366 87 385 281H384Q323 234 240 234Q154 234 96 285T38 438Q38 540 102 602T266 665Q378 665 444 588T511 354Q511 180 436 85T213 -10ZM267 331Q337
331 387 387Q386 467 353 517T263 568Q217 568 190 535T162 448Q162 392 189 362T267 331Z" />
<glyph unicode=":" glyph-name="colon" horiz-adv-x="263" d="M131 314Q104 314 85 334T65 382Q65 411 84 431T131 451Q159 451 178 431T198 382Q198 354 179 334T131 314ZM131 -9Q104 -9 85 11T65 60T84 108T131 128Q159 128 178 109T198 60T179 11T131 -9Z" />
<glyph unicode=";" glyph-name="semicolon" horiz-adv-x="263" d="M151 314T123 314T76 333T57 382T76 431T123 451T170 431T190 382Q190 354 171 334ZM34 -122Q80 -44 80 33Q80 64 74 99L184 118Q191 89 191 55Q191 -58 103 -155L34 -122Z" />
<glyph unicode="&lt;" glyph-name="less" horiz-adv-x="543" d="M46 213V307L474 484V383L150 261V259L474 137V36L46 213Z" />
<glyph unicode="=" glyph-name="equal" horiz-adv-x="550" d="M40 99V198H511V99H40ZM40 301V400H511V301H40Z" />
<glyph unicode="&gt;" glyph-name="greater" horiz-adv-x="543" d="M69 36V137L393 259V261L69 383V484L497 307V213L69 36Z" />
<glyph unicode="?" glyph-name="question" horiz-adv-x="482" d="M138 192Q107 229 107 276Q107 309 126 337T172 384T225 422T271 462T290 506Q290 534 272 549T221 564Q157 564 94 508L40 585Q133 665 241 665Q328 665 375 624T423 519Q423 481 403 449T353
394T295 353T246 312T225 269T239 229L138 192ZM222 -9T194 -9T147 11T128 60T147 108T194 128T241 109T261 60T242 11Z" />
<glyph unicode="@" glyph-name="at" horiz-adv-x="777" d="M486 -46L507 -113Q436 -140 346 -140Q209 -140 121 -49T33 191Q33 362 140 466T404 570Q554 570 649 483T744 250Q744 142 698 86T574 29Q488 29 471 111H470Q455 80 417 55T330 30Q276 30 235 69T194
189Q194 287 255 349T411 412Q496 412 565 370L545 215Q540 180 540 160Q540 99 583 99Q621 99 643 137T665 243Q665 355 598 428T402 501Q278 501 196 419T113 197Q113 70 181 0T354 -71Q433 -71 486 -46ZM458 252L467 323Q441 339 409 339Q359 339 325 299T290
192Q290 103 352 103Q390 103 419 139T458 252Z" />
<glyph unicode="A" glyph-name="A" horiz-adv-x="632" d="M8 0L263 662H359L624 0H494L430 165H195L133 0H8ZM230 263H393L347 394Q326 453 314 496H312Q305 470 278 393L230 263Z" />
<glyph unicode="B" glyph-name="B" horiz-adv-x="567" d="M80 0V659H273Q373 659 425 611T478 492Q478 448 457 412T398 356V354Q455 340 488 297T522 195Q522 113 461 57T291 0H80ZM200 99H277Q400 99 400 195Q400 237 371 261T290 285H200V99ZM200 384H257Q306
384 332 408T359 472Q359 511 333 535T256 560H200V384Z" />
<glyph unicode="C" glyph-name="C" horiz-adv-x="627" d="M561 137L594 42Q499 -10 385 -10Q227 -10 140 81T52 322Q52 468 148 566T400 665Q500 665 573 633V521Q492 564 403 564Q298 564 239 496T180 325Q180 220 239 156T399 91Q481 91 561 137Z" />
<glyph unicode="D" glyph-name="D" horiz-adv-x="696" d="M80 0V659H285Q457 659 551 571T645 334Q645 183 545 92T274 0H80ZM200 102H276Q399 102 457 166T516 332Q516 438 454 497T274 557H200V102Z" />
<glyph unicode="E" glyph-name="E" horiz-adv-x="502" d="M80 0V659H444L411 557H200V385H411V283H200V102H445V0H80Z" />
<glyph unicode="F" glyph-name="F" horiz-adv-x="480" d="M80 0V659H447L414 557H200V385H410V283H200V0H80Z" />
<glyph unicode="G" glyph-name="G" horiz-adv-x="708" d="M636 320V43Q530 -10 396 -10Q237 -10 145 81T52 318Q52 470 152 567T414 665Q513 665 605 632V520Q517 564 423 564Q307 564 244 499T180 326T240 155T405 91Q472 91 515 111V320H636Z" />
<glyph unicode="H" glyph-name="H" horiz-adv-x="715" d="M80 0V659H200V387H515V659H636V0H515V285H200V0H80Z" />
<glyph unicode="I" glyph-name="I" horiz-adv-x="280" d="M80 0V659H200V0H80Z" />
<glyph unicode="J" glyph-name="J" horiz-adv-x="329" d="M-31 -169L-7 -72Q17 -84 53 -84Q99 -84 114 -59T129 13V659H249V-3Q249 -86 203 -135T63 -185Q11 -185 -31 -169Z" />
<glyph unicode="K" glyph-name="K" horiz-adv-x="599" d="M80 0V659H200V378H203L429 659H568L303 339L583 0H436L203 289H200V0H80Z" />
<glyph unicode="L" glyph-name="L" horiz-adv-x="452" d="M80 0V659H200V102H434V0H80Z" />
<glyph unicode="M" glyph-name="M" horiz-adv-x="821" d="M80 0V659H189L362 410Q403 350 417 325H419Q445 371 473 414L631 659H741V0H620V372Q620 433 622 459H620Q609 437 575 385L445 183H390L246 390Q209 444 201 458H199Q200 432 200 375V0H80Z" />
<glyph unicode="N" glyph-name="N" horiz-adv-x="749" d="M669 0H560L274 376Q264 389 200 476H198Q200 450 200 374V0H80V659H199L475 298Q529 225 548 196H550Q548 266 548 307V659H669V0Z" />
<glyph unicode="O" glyph-name="O" horiz-adv-x="768" d="M384 -10Q238 -10 145 83T52 327Q52 477 144 571T384 665Q530 665 623 571T716 327Q716 177 623 84T384 -10ZM384 91Q476 91 532 154T588 327Q588 436 533 500T384 564Q291 564 236 501T180 327Q180 217
235 154T384 91Z" />
<glyph unicode="P" glyph-name="P" horiz-adv-x="545" d="M80 0V659H239Q330 659 387 631Q494 578 494 443Q494 380 464 329T368 250Q309 227 228 227H200V0H80ZM200 325H236Q284 325 313 340Q368 367 368 443Q368 513 316 544Q287 561 234 561H200V325Z" />
<glyph unicode="Q" glyph-name="Q" horiz-adv-x="768" d="M285 3Q179 31 116 117T52 327Q52 477 144 571T384 665Q530 665 623 571T716 327Q716 191 640 102T439 -4Q490 -62 573 -62Q610 -62 639 -51L667 -143Q624 -163 559 -163Q398 -163 285 3ZM384 91Q476 91
532 154T588 327Q588 436 533 500T384 564Q291 564 236 501T180 327Q180 217 235 154T384 91Z" />
<glyph unicode="R" glyph-name="R" horiz-adv-x="589" d="M80 0V659H260Q345 659 401 632Q499 586 499 471Q499 407 464 364T370 301V299Q399 283 452 192L562 0H424L329 167Q284 250 257 257H200V0H80ZM200 355H254Q296 355 327 372Q373 398 373 459Q373 516
329 542Q301 561 255 561H200V355Z" />
<glyph unicode="S" glyph-name="S" horiz-adv-x="533" d="M48 47L95 139Q164 91 244 91Q290 91 322 110T354 169Q354 204 325 231T254 278T170 321T99 386T69 483Q69 559 126 612T283 665Q378 665 444 632V522Q363 564 287 564Q248 564 223 547T197 493Q197 460
226 435T298 390T381 346T452 280T482 179Q482 93 416 42T247 -10Q129 -10 48 47Z" />
<glyph unicode="T" glyph-name="T" horiz-adv-x="536" d="M206 0V557H14V659H535L502 557H326V0H206Z" />
<glyph unicode="U" glyph-name="U" horiz-adv-x="696" d="M348 -10Q160 -10 100 118Q75 168 75 246V659H195V254Q195 201 213 165Q249 91 348 91T483 165Q501 201 501 255V659H621V246Q621 167 596 117Q535 -10 348 -10Z" />
<glyph unicode="V" glyph-name="V" horiz-adv-x="649" d="M274 -4L7 659H138L276 301L324 167H326Q354 250 375 302L512 659H642L375 -4H274Z" />
<glyph unicode="W" glyph-name="W" horiz-adv-x="944" d="M240 -4L7 659H143L264 280Q274 250 296 169H298Q311 215 332 279L421 544L380 659H502L629 286Q656 210 666 170H669Q691 258 699 284L813 659H937L715 -4H613L514 275Q487 351 478 385H475Q461 334 440
276L340 -4H240Z" />
<glyph unicode="X" glyph-name="X" horiz-adv-x="633" d="M11 0L247 331L30 659H166L322 422L489 659H621L390 334L611 0H477L315 243L143 0H11Z" />
<glyph unicode="Y" glyph-name="Y" horiz-adv-x="586" d="M232 0V261L7 659H139L293 368H295L448 659H578L353 260V0H232Z" />
<glyph unicode="Z" glyph-name="Z" horiz-adv-x="570" d="M26 0L353 557H72L41 659H544L223 102H547V0H26Z" />
<glyph unicode="[" glyph-name="bracketleft" horiz-adv-x="304" d="M68 -235V773H281V682H180V-144H281V-235H68Z" />
<glyph unicode="\" glyph-name="backslash" horiz-adv-x="401" d="M267 -35L14 696H134L386 -35H267Z" />
<glyph unicode="]" glyph-name="bracketright" horiz-adv-x="304" d="M23 -235V-144H124V682H23V773H237V-235H23Z" />
<glyph unicode="^" glyph-name="asciicircum" horiz-adv-x="521" d="M58 287L211 659H309L462 287H362L261 555H259L159 287H58Z" />
<glyph unicode="_" glyph-name="underscore" horiz-adv-x="442" d="M0 -130V-66H442V-130H0Z" />
<glyph unicode="`" glyph-name="grave" horiz-adv-x="384" d="M161 531L64 678H194L252 531H161Z" />
<glyph unicode="a" glyph-name="a" horiz-adv-x="492" d="M344 0L326 45Q266 -10 190 -10Q122 -10 78 32T33 141Q33 229 113 270Q159 294 235 297L316 300V315Q316 394 225 394Q163 394 101 361L62 438Q147 485 245 485Q435 485 435 313V121Q435 32 444 0H344ZM316
220L252 218Q207 217 183 203Q154 187 154 149Q154 118 173 101T224 84Q273 84 316 119V220Z" />
<glyph unicode="b" glyph-name="b" horiz-adv-x="533" d="M216 -10Q124 -10 61 23V708H180V471Q227 485 272 485Q370 485 434 423T499 252Q499 130 420 60T216 -10ZM235 89Q299 89 337 132T376 245Q376 308 343 347T252 386Q218 386 180 371V97Q205 89 235 89Z" />
<glyph unicode="c" glyph-name="c" horiz-adv-x="448" d="M274 -10Q162 -10 99 58T35 233Q35 342 106 413T285 485Q362 485 412 453V352Q361 389 297 389Q232 389 195 346T157 236Q157 164 193 125T291 86Q342 86 401 118L436 36Q369 -10 274 -10Z" />
<glyph unicode="d" glyph-name="d" horiz-adv-x="538" d="M304 -10Q185 -10 110 54T35 232Q35 344 108 414T294 485Q330 485 358 479V708H478V25Q406 -10 304 -10ZM302 89Q337 89 358 97V380Q326 387 301 387Q237 387 197 346T157 234Q157 166 196 128T302 89Z" />
<glyph unicode="e" glyph-name="e" horiz-adv-x="493" d="M459 204H156Q158 149 194 117T290 84Q352 84 409 116L445 34Q374 -10 278 -10Q157 -10 97 60T36 236Q36 345 93 415T249 485T403 418T459 232V204ZM155 287H338Q337 332 314 363T247 394Q205 394 181
363T155 287Z" />
<glyph unicode="f" glyph-name="f" horiz-adv-x="346" d="M94 0V380H24V473H94V539Q94 620 137 664T255 708Q309 708 354 687L330 592Q293 605 272 605Q214 605 214 540V473H337L308 380H214V0H94Z" />
<glyph unicode="g" glyph-name="g" horiz-adv-x="504" d="M234 -237Q131 -237 73 -199T14 -98Q14 -60 37 -30T99 16Q68 35 68 75Q68 125 125 164Q88 186 67 225T46 311Q46 382 97 433T239 485Q297 485 333 464Q339 462 345 466Q386 507 459 507Q477 507 491 505L467
419Q449 424 432 424Q410 424 397 416Q439 371 439 304Q439 225 385 177T243 129Q211 129 185 137Q173 117 173 102Q173 82 196 71T253 57T328 45T403 26T461 -12T484 -81Q484 -149 418 -193T234 -237ZM250 -153Q304 -153 337 -137T370 -94Q370 -64 334 -51T239
-30T159 -15Q121 -43 121 -77Q121 -112 156 -132T250 -153ZM242 219Q279 219 302 242T326 306Q326 343 303 369T241 395Q205 395 182 372T159 307Q159 270 181 245T242 219Z" />
<glyph unicode="h" glyph-name="h" horiz-adv-x="543" d="M61 0V708H180V421Q256 485 337 485Q402 485 445 446T488 313V0H369V276Q369 326 354 353T296 381Q240 381 180 331V0H61Z" />
<glyph unicode="i" glyph-name="i" horiz-adv-x="238" d="M59 0V473H179V0H59ZM150 550T119 550T67 570T46 621T67 672T119 693Q151 693 172 673T193 621Q193 592 172 571Z" />
<glyph unicode="j" glyph-name="j" horiz-adv-x="252" d="M-61 -220L-39 -122Q-16 -133 12 -133Q45 -133 59 -114T73 -52V473H193V-70Q193 -149 150 -193T30 -237Q-22 -237 -61 -220ZM164 550T133 550T81 570T60 621T81 672T133 693Q165 693 186 673T207 621Q207
592 186 571Z" />
<glyph unicode="k" glyph-name="k" horiz-adv-x="493" d="M61 0V708H180V309H182L337 473H473L279 267L489 0H350L182 219H180V0H61Z" />
<glyph unicode="l" glyph-name="l" horiz-adv-x="285" d="M61 107V708H180V139Q180 96 215 96Q230 96 245 102L268 10Q228 -7 180 -7Q61 -7 61 107Z" />
<glyph unicode="m" glyph-name="m" horiz-adv-x="833" d="M55 0V473H155L167 420Q250 485 326 485Q416 485 452 412Q539 485 622 485Q691 485 735 444T779 314V0H660V281Q660 329 645 355T588 381Q533 381 476 334Q477 329 477 316V0H357V280Q357 329 343 355T287
381Q233 381 174 334V0H55Z" />
<glyph unicode="n" glyph-name="n" horiz-adv-x="537" d="M55 0V473H157L169 420Q252 485 331 485Q396 485 439 446T483 313V0H363V276Q363 326 348 353T290 381Q234 381 174 331V0H55Z" />
<glyph unicode="o" glyph-name="o" horiz-adv-x="542" d="M376 -10T271 -10T101 60T35 238Q35 345 100 415T271 485T442 415T508 238T442 61ZM216 86T271 86T355 128T385 238T356 347T271 389T187 348T157 238T186 128Z" />
<glyph unicode="p" glyph-name="p" horiz-adv-x="528" d="M55 -237V455Q142 485 234 485Q359 485 426 419T493 238Q493 128 425 59T247 -10Q210 -10 174 1V-237H55ZM174 101Q205 89 238 89Q303 89 337 128T371 238Q371 312 334 349T230 387Q203 387 174 379V101Z" />
<glyph unicode="q" glyph-name="q" horiz-adv-x="534" d="M247 -10Q160 -10 98 51T35 225Q35 346 111 415T307 485Q408 485 479 455V-237H360V19Q312 -10 247 -10ZM277 89Q322 89 360 115V378Q328 387 300 387Q232 387 195 344T157 230Q157 166 189 128T277 89Z" />
<glyph unicode="r" glyph-name="r" horiz-adv-x="364" d="M55 0V473H156L169 420Q234 485 299 485Q338 485 366 466L324 365Q298 381 270 381Q228 381 174 334V0H55Z" />
<glyph unicode="s" glyph-name="s" horiz-adv-x="420" d="M21 36L58 123Q119 84 187 84Q270 84 270 134Q270 156 247 171T192 197T127 223T71 268T48 342Q48 406 96 445T227 485Q302 485 366 462V361Q295 391 232 391Q165 391 165 348Q165 328 188 314T243 289T308
262T364 215T387 137Q387 63 333 27T195 -10Q96 -10 21 36Z" />
<glyph unicode="t" glyph-name="t" horiz-adv-x="386" d="M236 -10Q173 -10 137 24T101 117V380H16V473H101V583L220 618V473H363L334 380H220V146Q220 114 231 100T266 86Q304 86 338 109L374 27Q319 -10 236 -10Z" />
<glyph unicode="u" glyph-name="u" horiz-adv-x="535" d="M213 -10Q171 -10 131 11T71 83Q55 121 55 182V473H174V194Q174 156 184 135Q202 92 255 92Q314 92 352 134V473H472V117Q472 29 480 0H378L360 49Q294 -10 213 -10Z" />
<glyph unicode="v" glyph-name="v" horiz-adv-x="486" d="M198 -3L5 473H126L243 151H245L360 473H480L288 -3H198Z" />
<glyph unicode="w" glyph-name="w" horiz-adv-x="748" d="M178 -3L7 473H128L228 152H230L330 473H423L527 152H529L627 473H745L570 -3H482L378 318H376L270 -3H178Z" />
<glyph unicode="x" glyph-name="x" horiz-adv-x="494" d="M7 0L184 238L13 473H138L249 319L361 473H485L312 238L487 0H362L248 158L132 0H7Z" />
<glyph unicode="y" glyph-name="y" horiz-adv-x="518" d="M513 473L332 -15Q305 -86 277 -132T217 -200T158 -229T94 -237Q38 -237 -12 -215L18 -121Q53 -140 89 -140Q131 -140 162 -108T221 3L8 473H135L275 139H277L390 473H513Z" />
<glyph unicode="z" glyph-name="z" horiz-adv-x="415" d="M15 0L234 380H53L29 473H408L191 93H404V0H15Z" />
<glyph unicode="{" glyph-name="braceleft" horiz-adv-x="362" d="M300 -227Q201 -222 161 -177T120 -54V164Q120 203 103 217T55 233V313Q86 314 103 328T120 382V600Q120 677 160 722T300 773L321 668Q275 663 255 642T234 578V397Q234 284 157 274V272Q234
262 234 149V-32Q234 -75 254 -96T321 -122L300 -227Z" />
<glyph unicode="|" glyph-name="bar" horiz-adv-x="282" d="M83 -236V780H200V-236H83Z" />
<glyph unicode="}" glyph-name="braceright" horiz-adv-x="362" d="M42 -122Q88 -117 108 -96T129 -32V149Q129 262 206 272V274Q129 284 129 397V578Q129 621 109 642T42 668L63 773Q162 768 202 723T243 600V382Q243 343 260 329T308 313V233Q277 232 260 218T243
164V-54Q243 -131 203 -176T63 -227L42 -122Z" />
<glyph unicode="~" glyph-name="asciitilde" horiz-adv-x="550" d="M81 198L24 274Q95 345 176 345Q216 345 281 317T378 288Q423 288 469 330L527 254Q456 183 374 183Q334 183 269 211T172 240Q147 240 127 231T81 198Z" />
</font>
</defs>
</svg>
