<?xml version="1.0" standalone="no"?> <!DOCTYPE svg PUBLIC "-//W3C//DTD SVG 1.0//EN" "http://www.w3.org/TR/2001/REC-SVG-20010904/DTD/svg10.dtd" > <svg xmlns="http://www.w3.org/2000/svg" width="100%" height="100%">
<defs >
<font id="blisspro-italic" horiz-adv-x="389" ><font-face
    font-family="Bliss Pro"
    units-per-em="1000"
    panose-1="2 0 5 6 5 0 0 9 0 4"
    ascent="953"
    descent="-241"
    alphabetic="0" />
<missing-glyph horiz-adv-x="550" d="M50 0V659H500V0H50ZM101 48H449V611H101V48ZM231 222Q202 251 202 282Q202 307 222 330T267 369T311 406T332 454Q332 475 317 488T277 501Q236 501 192 462L165 497Q214 548 282 548Q330 548 359 523T388 457Q388 426 368
398T322 353T277 318T256 285Q256 269 273 250L231 222ZM271 107T255 107T228 118T217 146T228 174T255 186T281 175T292 146T282 118Z" />
<glyph unicode=" " glyph-name="space" horiz-adv-x="179" />
<glyph unicode="!" glyph-name="exclam" horiz-adv-x="279" d="M78 -8Q57 -8 44 6T30 42Q30 68 46 85T88 103Q109 103 123 88T137 52Q137 27 120 10T78 -8ZM83 181Q87 271 99 344T152 607L163 659H251L240 607Q183 341 161 271Q149 231 130 181H83Z" />
<glyph unicode="&quot;" glyph-name="quotedbl" horiz-adv-x="443" d="M188 483L127 495L174 715L257 698L188 483ZM356 483L296 495L343 715L425 698L356 483Z" />
<glyph unicode="#" glyph-name="numbersign" horiz-adv-x="679" d="M84 0L139 175H15L22 246H162L216 416H91L98 487H238L292 658H377L323 487H454L508 658H593L539 487H662L655 416H516L463 246H587L580 175H440L385 0H300L355 175H224L169 0H84ZM247 246H378L432
416H301L247 246Z" />
<glyph unicode="$" glyph-name="dollar" horiz-adv-x="529" d="M141 -82L162 18Q97 24 43 57L74 125Q131 89 196 89Q251 89 288 113T326 194Q326 224 311 249T274 290T226 325T177 363T140 411T125 480Q125 549 172 594T294 648L313 741H383L363 647Q420 640 464
618L448 546Q389 577 324 577Q278 577 247 556T215 491Q215 464 230 442T267 404T315 370T364 332T401 279T416 204Q416 123 365 75T232 18L211 -82H141Z" />
<glyph unicode="%" glyph-name="percent" horiz-adv-x="874" d="M151 0L641 659H719L229 0H151ZM222 316Q162 316 129 351T95 450Q95 542 143 603T273 665Q333 665 366 629T399 530Q399 438 351 377T222 316ZM228 374Q273 374 300 421T327 528Q327 607 267 607Q222
607 195 559T168 452Q168 374 228 374ZM594 -10Q534 -10 501 25T467 124Q467 216 515 277T645 339Q705 339 738 303T771 205Q771 113 723 52T594 -10ZM600 48Q644 48 671 96T699 202Q699 281 638 281Q594 281 567 233T540 126Q540 48 600 48Z" />
<glyph unicode="&amp;" glyph-name="ampersand" horiz-adv-x="776" d="M253 -10Q154 -10 93 39T31 172Q31 254 84 308T236 380V382Q153 421 153 506Q153 578 210 621T357 665Q459 665 530 624L505 554Q435 592 360 592Q309 592 276 571T242 505Q242 425 349 395L335
331Q234 331 177 291T120 187Q120 130 157 97T262 63Q360 63 438 127T546 317H463L478 388H756L727 317H629Q611 232 571 168T480 65T371 9T253 -10Z" />
<glyph unicode="&apos;" glyph-name="quotesingle" horiz-adv-x="274" d="M188 483L127 495L174 715L257 698L188 483Z" />
<glyph unicode="(" glyph-name="parenleft" horiz-adv-x="332" d="M159 -233Q63 -99 63 133Q63 299 128 470T326 771L376 719Q270 608 211 454T152 132Q152 23 169 -50T224 -193L159 -233Z" />
<glyph unicode=")" glyph-name="parenright" horiz-adv-x="332" d="M3 -233L-47 -181Q59 -70 118 84T177 406Q177 515 160 588T105 731L170 771Q266 637 266 405Q266 239 201 68T3 -233Z" />
<glyph unicode="*" glyph-name="asterisk" horiz-adv-x="487" d="M234 337L172 364Q184 392 215 443T252 505Q245 503 186 487T94 469L87 535Q106 539 170 538T247 537Q240 545 199 587T139 656L192 695Q211 671 240 617T274 556Q278 567 294 624T323 710L384
684Q373 654 340 602T304 543Q309 544 370 560T463 578L470 511Q455 506 386 508T309 511Q316 503 357 461T417 392L362 352Q344 377 317 428T281 492Q277 478 269 447T253 387T234 337Z" />
<glyph unicode="+" glyph-name="plus" horiz-adv-x="531" d="M212 0V215H17V289H212V499H294V289H490V215H294V0H212Z" />
<glyph unicode="," glyph-name="comma" horiz-adv-x="235" d="M-11 -133L-52 -100Q-7 -51 10 -3T28 106H115Q115 -43 -11 -133Z" />
<glyph unicode="-" glyph-name="hyphen" horiz-adv-x="342" d="M18 210L34 286H284L268 210H18Z" />
<glyph unicode="." glyph-name="period" horiz-adv-x="235" d="M58 -8Q37 -8 24 6T10 42Q10 68 26 85T68 103Q89 103 102 88T116 52Q116 26 100 9T58 -8Z" />
<glyph unicode="/" glyph-name="slash" horiz-adv-x="391" d="M-15 -32L314 696H406L77 -32H-15Z" />
<glyph unicode="0" glyph-name="zero" horiz-adv-x="537" d="M213 -10Q126 -10 81 47T35 214Q35 295 54 374T108 519T199 624T322 665Q410 665 455 608T501 440T469 230T370 60T213 -10ZM218 66Q270 66 314 120T383 263T408 450Q408 589 317 589Q265 589 222 534T153
391T128 204Q128 66 218 66Z" />
<glyph unicode="1" glyph-name="one" horiz-adv-x="413" d="M134 0L253 560Q186 521 85 498V572Q127 583 187 610T287 664H362L220 0H134Z" />
<glyph unicode="2" glyph-name="two" horiz-adv-x="520" d="M7 0Q17 70 43 128T103 223T175 292T250 346T317 393T365 443T383 504Q383 589 280 589Q207 589 121 548L104 619Q202 665 294 665Q376 665 425 624T475 511Q475 455 444 411T367 333T272 266T181 184T124
75H429L413 0H7Z" />
<glyph unicode="3" glyph-name="three" horiz-adv-x="523" d="M-4 29L33 99Q91 66 171 66Q238 66 291 98T344 199Q344 253 305 275T187 297H110L120 369H163Q224 369 262 380Q312 394 342 425T372 503Q372 547 343 568T264 589Q193 589 113 554L97 623Q189 665
279 665Q366 665 415 624T465 512Q465 387 324 340V338Q437 314 437 204Q437 111 364 51T171 -10Q67 -10 -4 29Z" />
<glyph unicode="4" glyph-name="four" horiz-adv-x="575" d="M275 0L311 171H48L39 238L430 664H503L414 244H513L497 171H398L362 0H275ZM328 244L356 372Q372 446 394 526L138 243Q152 243 181 243T227 244H328Z" />
<glyph unicode="5" glyph-name="five" horiz-adv-x="519" d="M1 29L38 99Q93 66 170 66Q240 66 292 104T345 214Q345 324 177 324H94L163 659H510L484 584H235L196 396H225Q330 396 384 348T438 223Q438 119 363 55T167 -10Q64 -10 1 29Z" />
<glyph unicode="6" glyph-name="six" horiz-adv-x="562" d="M264 -10Q171 -10 117 48T62 226Q62 414 164 539T429 665Q477 665 525 649L498 580Q468 591 427 591Q321 591 248 515T152 323H154Q179 360 223 382T316 405Q397 405 445 356T493 221Q493 122 426 56T264
-10ZM265 64Q321 64 360 106T400 215Q400 266 373 298T293 331Q236 331 196 290T156 182Q156 130 184 97T265 64Z" />
<glyph unicode="7" glyph-name="seven" horiz-adv-x="473" d="M63 0Q144 320 370 584H75L67 659H489V623Q234 325 156 0H63Z" />
<glyph unicode="8" glyph-name="eight" horiz-adv-x="564" d="M253 -10Q156 -10 98 35T39 159Q39 227 81 272T194 341V343Q107 394 107 484Q107 562 168 613T329 665Q420 665 474 622T529 508Q529 448 487 404T384 337V335Q497 291 497 185Q497 95 425 43T253
-10ZM256 61Q319 61 361 93T404 181Q404 226 368 255T262 304Q203 285 168 249T132 165Q132 113 169 87T256 61ZM303 370Q436 410 436 501Q436 546 405 570T324 594Q273 594 237 566T200 486Q200 448 227 417T303 370Z" />
<glyph unicode="9" glyph-name="nine" horiz-adv-x="570" d="M50 15L75 85Q117 64 172 64Q362 64 408 291H406Q338 242 251 242Q174 242 124 289T73 426Q73 533 137 599T297 665Q393 665 451 602T510 419Q510 215 421 103T177 -10Q103 -10 50 15ZM275 315Q344
315 416 367Q421 395 421 426Q421 503 388 547T296 591Q240 591 203 545T166 431Q166 379 194 347T275 315Z" />
<glyph unicode=":" glyph-name="colon" horiz-adv-x="235" d="M58 -8Q37 -8 24 6T10 42Q10 68 26 85T68 103Q89 103 102 88T116 52Q116 26 100 9T58 -8ZM126 334Q105 334 92 348T78 384Q78 410 94 427T136 444Q157 444 170 430T184 394Q184 368 168 351T126 334Z" />
<glyph unicode=";" glyph-name="semicolon" horiz-adv-x="235" d="M-11 -133L-52 -100Q-7 -51 10 -3T28 106H115Q115 -43 -11 -133ZM114 334Q93 334 80 348T66 384Q66 410 82 427T124 444Q145 444 159 430T173 394Q173 368 156 351T114 334Z" />
<glyph unicode="&lt;" glyph-name="less" horiz-adv-x="598" d="M69 223V297L490 481V405L149 261V259L490 115V39L69 223Z" />
<glyph unicode="=" glyph-name="equal" horiz-adv-x="531" d="M26 126V200H499V126H26ZM26 305V379H499V305H26Z" />
<glyph unicode="&gt;" glyph-name="greater" horiz-adv-x="598" d="M101 39V115L442 259V261L101 405V481L522 297V223L101 39Z" />
<glyph unicode="?" glyph-name="question" horiz-adv-x="451" d="M138 -8Q117 -8 104 6T90 42Q90 68 106 85T148 103Q169 103 182 88T196 52Q196 26 180 9T138 -8ZM131 181Q133 235 156 279T210 353T273 408T325 462T347 521Q347 555 326 572T268 590Q201 590
135 541L103 604Q187 665 283 665Q348 665 392 630T436 534Q436 482 407 442Q389 416 353 385T287 329T228 265T188 181H131Z" />
<glyph unicode="@" glyph-name="at" horiz-adv-x="771" d="M336 -140Q201 -140 115 -50T28 190Q28 361 133 465T391 570Q538 570 632 483T726 254Q726 145 679 87T558 29Q518 29 492 51T460 113H458Q443 81 406 56T321 31Q269 31 232 68T194 187Q194 285 252 347T400
410Q475 410 541 370L520 209Q515 177 515 157Q515 89 565 89Q608 89 634 132T660 250Q660 360 590 436T389 512Q264 512 180 426T95 195Q95 64 165 -9T344 -82Q418 -82 471 -58L489 -113Q420 -140 336 -140ZM337 92Q378 92 411 129T454 253L464 332Q437 351 399
351Q344 351 307 306T270 189Q270 92 337 92Z" />
<glyph unicode="A" glyph-name="A" horiz-adv-x="580" d="M-44 0L306 661H376L496 0H404L374 173H142L54 0H-44ZM182 246H362L332 441L319 528H317Q284 452 276 436L182 246Z" />
<glyph unicode="B" glyph-name="B" horiz-adv-x="542" d="M10 0L150 659H298Q390 659 434 616T479 509Q479 394 367 345V343Q408 333 438 300T468 215Q468 126 395 63T184 0H10ZM177 373H259Q322 373 356 411T390 498Q390 537 366 561T289 585H222L177 373ZM114
73H201Q284 73 331 110T378 208Q378 252 348 276T266 300H161L114 73Z" />
<glyph unicode="C" glyph-name="C" horiz-adv-x="591" d="M321 -10Q195 -10 120 62T45 263Q45 437 153 551T427 665Q516 665 591 630L573 554Q503 589 428 589Q300 589 219 497T138 272Q138 179 188 123T328 66Q410 66 491 107L508 34Q423 -10 321 -10Z" />
<glyph unicode="D" glyph-name="D" horiz-adv-x="638" d="M10 0L150 659H266Q379 659 452 626Q595 563 595 388Q595 266 537 173T371 35Q286 0 170 0H10ZM114 75H179Q272 75 337 105Q416 141 459 216T502 393Q502 515 404 560Q352 584 263 584H222L114 75Z" />
<glyph unicode="E" glyph-name="E" horiz-adv-x="468" d="M10 0L150 659H469L439 584H222L178 374H391L375 299H161L114 75H357L341 0H10Z" />
<glyph unicode="F" glyph-name="F" horiz-adv-x="451" d="M10 0L150 659H469L440 584H222L178 374H390L374 299H161L98 0H10Z" />
<glyph unicode="G" glyph-name="G" horiz-adv-x="662" d="M325 -10Q199 -10 122 62T45 266Q45 372 91 462T227 608T434 665Q537 665 624 625L606 549Q531 590 440 590Q305 590 222 499T138 276Q138 171 191 119T332 66Q412 66 458 90L507 314H594L535 38Q452 -10
325 -10Z" />
<glyph unicode="H" glyph-name="H" horiz-adv-x="666" d="M10 0L150 659H238L177 373H507L568 659H656L516 0H428L491 297H161L98 0H10Z" />
<glyph unicode="I" glyph-name="I" horiz-adv-x="248" d="M10 0L150 659H238L98 0H10Z" />
<glyph unicode="J" glyph-name="J" horiz-adv-x="289" d="M-143 -166L-116 -95Q-91 -107 -53 -107Q4 -107 29 -62Q46 -29 54 16L191 659H279L140 7Q125 -67 101 -108Q54 -183 -53 -183Q-104 -183 -143 -166Z" />
<glyph unicode="K" glyph-name="K" horiz-adv-x="547" d="M10 0L150 659H238L174 356H177L464 659H571L243 316L463 0H357L161 288H159L98 0H10Z" />
<glyph unicode="L" glyph-name="L" horiz-adv-x="433" d="M10 0L150 659H238L114 75H354L337 0H10Z" />
<glyph unicode="M" glyph-name="M" horiz-adv-x="786" d="M10 0L150 659H234L336 379Q342 362 358 317T380 254H382Q428 321 455 356L683 659H776L636 0H548L621 342Q642 443 660 508H657Q615 448 577 400L386 147H338L246 395Q215 483 207 508H205L170 340L98 0H10Z" />
<glyph unicode="N" glyph-name="N" horiz-adv-x="701" d="M10 0L150 659H233L450 234Q473 190 494 141H496Q499 160 506 195T515 242L603 659H692L551 0H478L254 439Q218 511 210 531H208Q203 498 191 436L98 0H10Z" />
<glyph unicode="O" glyph-name="O" horiz-adv-x="718" d="M312 -10Q189 -10 117 62T45 266Q45 371 88 461T215 608T406 665Q529 665 601 594T673 390Q673 285 630 195T503 47T312 -10ZM318 66Q435 66 507 164T579 389Q579 485 534 537T401 589Q322 589 261 541T169
420T138 267Q138 172 184 119T318 66Z" />
<glyph unicode="P" glyph-name="P" horiz-adv-x="512" d="M10 0L150 659H251Q317 659 359 643Q415 623 446 579T478 474Q478 396 434 337T310 255Q254 238 185 238H148L98 0H10ZM164 311H198Q249 311 283 325Q334 341 361 380T388 472Q388 550 319 575Q291 586
249 586H222L164 311Z" />
<glyph unicode="Q" glyph-name="Q" horiz-adv-x="718" d="M45 266Q45 371 88 461T215 608T406 665Q529 665 601 594T673 390Q673 238 584 123T351 -4Q334 -6 316 -4V-6Q322 -9 357 -34T425 -73T498 -87Q542 -87 588 -73L606 -142Q547 -162 484 -162Q340 -162 215
-23Q206 -13 158 28T89 103Q45 172 45 266ZM318 66Q435 66 507 164T579 389Q579 485 534 537T401 589Q322 589 261 541T169 420T138 267Q138 172 184 119T318 66Z" />
<glyph unicode="R" glyph-name="R" horiz-adv-x="536" d="M10 0L150 659H280Q385 659 436 612T488 493Q488 411 441 362T310 295V293Q325 268 354 206L447 0H351L280 167Q242 249 227 275H156L98 0H10ZM172 348H228Q307 348 352 383T398 485Q398 531 368 558T274
586H222L172 348Z" />
<glyph unicode="S" glyph-name="S" horiz-adv-x="471" d="M-4 34L32 104Q91 66 163 66Q219 66 258 92T298 177Q298 210 283 237T243 281T192 320T141 360T102 412T86 484Q86 564 143 614T294 665Q377 665 443 632L427 556Q365 590 295 590Q244 590 211 565T178
496Q178 462 200 435T253 386T315 340T368 276T390 187Q390 91 326 41T163 -10Q69 -10 -4 34Z" />
<glyph unicode="T" glyph-name="T" horiz-adv-x="492" d="M131 0L255 584H61L77 659H556L524 584H343L219 0H131Z" />
<glyph unicode="U" glyph-name="U" horiz-adv-x="651" d="M276 -10Q172 -10 115 41T57 182Q57 213 69 273L151 659H239L156 271Q146 224 146 193Q146 130 181 98T280 65Q364 65 409 112Q448 152 465 232L556 659H644L552 223Q528 111 471 57Q400 -10 276 -10Z" />
<glyph unicode="V" glyph-name="V" horiz-adv-x="575" d="M209 -4L72 659H167L240 269Q259 162 263 132H265Q292 195 327 257L539 659H638L275 -4H209Z" />
<glyph unicode="W" glyph-name="W" horiz-adv-x="836" d="M163 -4L72 659H168L212 281Q220 214 227 130H229Q254 197 290 268L427 548L412 659H500L546 280Q554 222 562 130H564Q585 193 621 270L801 659H898L574 -4H502L463 286Q451 363 446 421H444Q419 361
380 283L236 -4H163Z" />
<glyph unicode="X" glyph-name="X" horiz-adv-x="583" d="M-43 0L236 338L86 659H181L298 405L506 659H612L337 326L490 0H396L275 258L62 0H-43Z" />
<glyph unicode="Y" glyph-name="Y" horiz-adv-x="514" d="M162 0L216 255L71 659H163L270 341H272L477 659H576L304 252L250 0H162Z" />
<glyph unicode="Z" glyph-name="Z" horiz-adv-x="526" d="M-28 0L388 584H105L97 659H538L125 75H444L427 0H-28Z" />
<glyph unicode="[" glyph-name="bracketleft" horiz-adv-x="328" d="M-13 -233L201 772H382L367 704H270L86 -166H182L168 -233H-13Z" />
<glyph unicode="\" glyph-name="backslash" horiz-adv-x="429" d="M266 -32L70 696H156L352 -32H266Z" />
<glyph unicode="]" glyph-name="bracketright" horiz-adv-x="328" d="M-93 -233L-78 -166H19L203 704H107L121 772H302L88 -233H-93Z" />
<glyph unicode="^" glyph-name="asciicircum" horiz-adv-x="566" d="M87 287L245 659H321L479 287H403L284 579H282L163 287H87Z" />
<glyph unicode="_" glyph-name="underscore" horiz-adv-x="438" d="M-89 -120L-77 -66H369L357 -120H-89Z" />
<glyph unicode="`" glyph-name="grave" horiz-adv-x="367" d="M159 531L78 678H178L227 531H159Z" />
<glyph unicode="a" glyph-name="a" horiz-adv-x="469" d="M127 -10Q70 -10 36 25T1 115Q1 195 57 241Q120 293 248 293L314 294Q320 316 320 343Q320 415 233 415Q168 415 93 379L81 446Q164 485 247 485Q315 485 361 454T407 348Q407 313 390 234L380 192Q363
115 363 70Q363 39 371 10L296 -6Q283 34 282 75Q216 -10 127 -10ZM150 62Q197 62 240 100T296 196L303 229H266Q159 229 119 197Q87 171 87 127Q87 62 150 62Z" />
<glyph unicode="b" glyph-name="b" horiz-adv-x="505" d="M4 11L153 708H240L193 489Q185 450 169 398H171Q198 437 238 461T321 485Q381 485 419 442T458 323Q458 178 367 84T137 -10Q60 -10 4 11ZM104 71Q129 64 157 64Q248 64 308 134T369 314Q369 353 351
381T293 410Q245 410 202 364Q154 313 134 219L104 71Z" />
<glyph unicode="c" glyph-name="c" horiz-adv-x="438" d="M221 -10Q129 -10 75 44T21 189Q21 314 98 399T295 485Q361 485 414 461L398 388Q348 412 296 412Q219 412 165 351T110 198Q110 135 141 99T231 63Q291 63 351 98L374 35Q346 15 303 3T221 -10Z" />
<glyph unicode="d" glyph-name="d" horiz-adv-x="500" d="M231 -10Q137 -10 79 45T21 198Q21 327 100 406T294 485Q350 485 392 470L443 708H530L383 22Q310 -10 231 -10ZM238 64Q278 64 309 78L376 397Q336 411 300 411Q220 411 165 354T110 203Q110 140 143
102T238 64Z" />
<glyph unicode="e" glyph-name="e" horiz-adv-x="469" d="M307 -10T218 -10T75 44T21 192Q21 317 91 401T269 485Q346 485 387 443T428 330Q428 280 407 220L109 216Q108 208 108 192Q108 131 140 97T226 62Q285 62 355 98L379 34Q307 -10 218 -10ZM120 281L334
284Q342 311 342 333Q342 368 323 391T261 415Q211 415 172 376T120 281Z" />
<glyph unicode="f" glyph-name="f" horiz-adv-x="311" d="M-90 -170Q1 -82 40 34T115 402H41L52 473H125L135 536Q146 595 169 631Q219 708 313 708Q367 708 405 685L377 617Q347 632 317 632Q241 632 223 534L213 473H324L297 402H202Q186 297 176 238T146 98T105
-32T48 -135T-34 -228L-90 -170Z" />
<glyph unicode="g" glyph-name="g" horiz-adv-x="505" d="M-21 -201L10 -128Q67 -161 128 -161Q197 -161 233 -124T288 -5L305 70H303Q240 -9 155 -9Q94 -9 58 32T21 152Q21 240 52 313T153 436T319 485Q400 485 473 458L372 -15Q350 -123 295 -180T125 -237Q47
-237 -21 -201ZM181 64Q226 64 274 111T345 267L374 402Q347 411 307 411Q218 411 164 338T110 167Q110 64 181 64Z" />
<glyph unicode="h" glyph-name="h" horiz-adv-x="501" d="M0 0L151 708H238L186 469Q178 425 162 379H164Q194 426 240 455T338 485Q388 485 417 456T447 369Q447 333 435 277L376 0H289L348 274Q358 324 358 347Q358 407 305 407Q276 407 243 388T181 330Q147
282 129 201L86 0H0Z" />
<glyph unicode="i" glyph-name="i" horiz-adv-x="223" d="M0 0L101 473H188L86 0H0ZM169 571Q145 571 131 585T117 620Q117 648 136 665T180 683Q204 683 218 669T232 634Q232 607 213 589T169 571Z" />
<glyph unicode="j" glyph-name="j" horiz-adv-x="237" d="M-160 -223L-134 -151Q-113 -160 -87 -160Q-49 -160 -30 -137T1 -62L115 473H202L79 -99Q50 -237 -84 -237Q-127 -237 -160 -223ZM183 571Q160 571 146 584T132 620Q132 648 151 665T195 683Q218 683 232
670T246 634Q246 606 228 589T183 571Z" />
<glyph unicode="k" glyph-name="k" horiz-adv-x="445" d="M0 0L151 708H238L150 297H152L350 473H458L218 262L384 0H284L139 235H137L86 0H0Z" />
<glyph unicode="l" glyph-name="l" horiz-adv-x="264" d="M115 -6Q73 -6 49 15T24 78Q24 94 30 127L154 708H241L117 128Q113 111 113 97Q113 71 142 71Q159 71 180 78V6Q148 -6 115 -6Z" />
<glyph unicode="m" glyph-name="m" horiz-adv-x="770" d="M0 0L101 473H171L159 379H161Q193 426 237 455T331 485T407 458T434 374H436Q468 422 514 453T612 485Q660 485 689 458T718 377Q719 349 706 281L646 0H560L620 284Q629 324 629 350Q629 407 578 407Q520
407 464 334Q427 285 410 203L366 0H280L340 284Q349 324 349 350Q349 407 298 407Q240 407 184 333Q148 286 130 203L86 0H0Z" />
<glyph unicode="n" glyph-name="n" horiz-adv-x="501" d="M0 0L101 473H171L159 379H161Q192 425 239 455T338 485Q388 485 417 456T447 369Q447 333 435 277L376 0H289L348 274Q358 324 358 347Q358 407 305 407Q277 407 244 389T184 334Q148 287 129 201L86 0H0Z" />
<glyph unicode="o" glyph-name="o" horiz-adv-x="509" d="M206 -10Q117 -10 69 42T21 176Q21 310 96 397T278 485Q367 485 414 433T462 299Q462 165 388 78T206 -10ZM209 63Q281 63 327 132T373 294Q373 412 275 412Q203 412 157 343T110 181Q110 63 209 63Z" />
<glyph unicode="p" glyph-name="p" horiz-adv-x="506" d="M-51 -237L99 463Q172 485 240 485Q347 485 403 430T459 286Q459 152 378 71T183 -10Q134 -10 87 4L36 -237H-51ZM104 77Q134 64 177 64Q263 64 316 126T370 279Q370 344 335 377T236 411Q205 411 173
403L104 77Z" />
<glyph unicode="q" glyph-name="q" horiz-adv-x="507" d="M240 -237L285 -22Q303 55 307 70H305Q239 -10 155 -10Q95 -10 58 31T21 152Q21 241 53 314T155 436T324 485Q398 485 475 458L326 -237H240ZM182 64Q227 64 275 111T347 267L376 402Q345 411 307 411Q218
411 164 338T110 166Q110 64 182 64Z" />
<glyph unicode="r" glyph-name="r" horiz-adv-x="328" d="M0 0L101 473H171L159 379H161Q212 485 295 485Q327 485 353 468L316 392Q297 403 275 403Q230 403 190 351T127 193L87 0H0Z" />
<glyph unicode="s" glyph-name="s" horiz-adv-x="360" d="M-26 28L3 94Q56 62 114 62Q152 62 178 79T205 128Q205 151 189 170T151 204T106 237T67 283T51 348Q51 407 92 446T212 485Q277 485 331 464L317 393Q262 414 216 414Q182 414 161 399T139 352Q139 329
155 310T193 275T238 242T277 196T293 130Q293 65 244 28T118 -10Q36 -10 -26 28Z" />
<glyph unicode="t" glyph-name="t" horiz-adv-x="341" d="M157 -10Q102 -10 75 15T48 85Q48 111 55 143L110 402H32L47 473H126L149 580L241 606L212 473H341L313 402H197L140 134Q136 118 136 103Q136 63 178 63Q213 63 258 88L280 24Q221 -10 157 -10Z" />
<glyph unicode="u" glyph-name="u" horiz-adv-x="502" d="M144 -10Q93 -10 61 19T29 109Q29 142 41 202L98 473H185L126 194Q117 154 117 128Q117 66 171 66Q227 66 271 114T331 234L382 473H468L408 192Q393 110 393 72Q393 43 400 10L326 -6Q311 40 314 86H312Q282
44 237 17T144 -10Z" />
<glyph unicode="v" glyph-name="v" horiz-adv-x="441" d="M133 -3L38 473H123L162 245Q178 154 183 112H185L248 240L368 473H460L200 -3H133Z" />
<glyph unicode="w" glyph-name="w" horiz-adv-x="674" d="M111 -3L39 473H121L153 246Q163 178 168 117H170Q192 170 220 229L338 473H400L428 251Q434 203 442 117H444Q451 136 493 231L603 473H694L458 -3H390L362 226Q352 306 348 345H346Q327 300 289 223L177
-3H111Z" />
<glyph unicode="x" glyph-name="x" horiz-adv-x="448" d="M-50 0L161 242L36 473H125L218 300L365 473H460L255 236L384 0H293L198 180L44 0H-50Z" />
<glyph unicode="y" glyph-name="y" horiz-adv-x="452" d="M-125 -219L-94 -151Q-67 -164 -36 -164Q12 -164 54 -129T142 -1L35 473H122L172 232Q178 203 199 97H201Q224 152 257 220L380 473H471L222 -16Q160 -139 101 -188T-43 -237Q-94 -237 -125 -219Z" />
<glyph unicode="z" glyph-name="z" horiz-adv-x="387" d="M-35 0L237 402H50L41 473H380L106 70H320L306 0H-35Z" />
<glyph unicode="{" glyph-name="braceleft" horiz-adv-x="346" d="M182 -225Q108 -214 74 -183T40 -98Q40 -77 48 -37L89 159Q92 176 92 189Q92 237 38 240L52 306Q97 308 117 333Q129 347 134 375L181 602Q195 670 226 705Q275 762 383 769V692Q318 683 290 649Q272
629 263 580L222 382Q212 336 197 312Q176 282 128 270V268Q179 258 179 201Q179 180 172 143L136 -29Q130 -53 130 -75Q130 -107 148 -124T207 -149L182 -225Z" />
<glyph unicode="|" glyph-name="bar" horiz-adv-x="289" d="M103 -237V780H187V-237H103Z" />
<glyph unicode="}" glyph-name="braceright" horiz-adv-x="346" d="M-63 -225V-147Q2 -138 30 -104Q47 -85 58 -35L98 163Q108 211 124 232Q145 263 192 275V277Q142 287 142 346Q142 370 148 402L185 574Q190 601 190 620Q190 652 172 669T114 693L139 769Q213
759 246 728T280 642Q280 622 272 582L231 385Q228 370 228 356Q228 308 282 305L268 239Q224 237 203 211Q191 196 186 170L139 -57Q125 -125 94 -160Q45 -216 -63 -225Z" />
<glyph unicode="~" glyph-name="asciitilde" horiz-adv-x="531" d="M66 207L20 261Q87 328 156 328Q193 328 265 298T366 268Q390 268 408 277T454 311L499 257Q434 191 363 191Q327 191 255 220T154 250Q129 250 110 241T66 207Z" />
</font>
</defs>
</svg>
